<svg xmlns="http://www.w3.org/2000/svg" viewBox="0 0 400 300" fill="none" stroke="currentColor" stroke-width="1.25" stroke-linecap="round" stroke-linejoin="round" aria-hidden="true">
	<g stroke-width="0.6" opacity="0.55">
		<path pathLength="1" d="M20 100 L380 100"/>
		<path pathLength="1" d="M40 128 L180 128 M40 170 L180 170 M40 212 L180 212 M40 254 L180 254"/>
		<path pathLength="1" d="M220 128 L380 128 M220 170 L380 170 M220 212 L380 212 M220 254 L380 254"/>
		<path pathLength="1" d="M200 108 L200 272"/>
	</g>
	<g>
		<path pathLength="1" d="M34 58 L104 58"/>
		<path pathLength="1" d="M71.7 60.5 L76 58 L71.7 55.5"/>
		<path pathLength="1" d="M160 58 L160.6 58.9 L161.2 59.8 L161.8 60.5 L162.3 61 L162.9 61.4 L163.5 61.5 L164.1 61.4 L164.7 61 L165.2 60.5 L165.8 59.8 L166.4 58.9 L167 58 L167.6 57.1 L168.2 56.2 L168.8 55.5 L169.3 55 L169.9 54.6 L170.5 54.5 L171.1 54.6 L171.7 55 L172.2 55.5 L172.8 56.2 L173.4 57.1 L174 58 L174.6 58.9 L175.2 59.8 L175.8 60.5 L176.3 61 L176.9 61.4 L177.5 61.5 L178.1 61.4 L178.7 61 L179.2 60.5 L179.8 59.8 L180.4 58.9 L181 58 L181.6 57.1 L182.2 56.2 L182.8 55.5 L183.3 55 L183.9 54.6 L184.5 54.5 L185.1 54.6 L185.7 55 L186.2 55.5 L186.8 56.2 L187.4 57.1 L188 58 L188.6 58.9 L189.2 59.8 L189.8 60.5 L190.3 61 L190.9 61.4 L191.5 61.5 L192.1 61.4 L192.7 61 L193.2 60.5 L193.8 59.8 L194.4 58.9 L195 58 L195.6 57.1 L196.2 56.3 L196.8 55.5 L197.3 55 L197.9 54.6 L198.5 54.5 L199.1 54.6 L199.7 55 L200.2 55.5 L200.8 56.2 L201.4 57.1 L202 58 L202.6 58.9 L203.2 59.7 L203.8 60.5 L204.3 61 L204.9 61.4 L205.5 61.5 L206.1 61.4 L206.7 61 L207.2 60.5 L207.8 59.8 L208.4 58.9 L209 58 L209.6 57.1 L210.2 56.3 L210.8 55.5 L211.3 55 L211.9 54.6 L212.5 54.5 L213.1 54.6 L213.7 55 L214.2 55.5 L214.8 56.2 L215.4 57.1 L216 58 L216.6 58.9 L217.2 59.7 L217.8 60.5 L218.3 61 L218.9 61.4 L219.5 61.5 L220.1 61.4 L220.7 61 L221.2 60.5 L221.8 59.8 L222.4 58.9 L223 58 L223.6 57.1 L224.2 56.3 L224.8 55.5 L225.3 55 L225.9 54.6 L226.5 54.5 L227.1 54.6 L227.7 55 L228.2 55.5 L228.8 56.2 L229.4 57.1 L230 58"/>
		<path pathLength="1" d="M282 76 L318 60 L354 76"/>
		<path pathLength="1" d="M299.4 70.4 L301.8 67.2 L297.8 66.8"/>
		<path pathLength="1" d="M333.8 69.2 L337.8 68.8 L335.4 65.6"/>
		<path pathLength="1" d="M318 60 L318.5 59.8 L318.9 59.5 L319.4 59.2 L319.8 59 L320.1 58.8 L320.4 58.5 L320.7 58.2 L320.9 58 L321 57.8 L321 57.5 L321 57.2 L320.9 57 L320.7 56.8 L320.4 56.5 L320.1 56.2 L319.8 56 L319.4 55.8 L318.9 55.5 L318.5 55.2 L318 55 L317.5 54.8 L317.1 54.5 L316.6 54.2 L316.2 54 L315.9 53.8 L315.6 53.5 L315.3 53.2 L315.1 53 L315 52.8 L315 52.5 L315 52.2 L315.1 52 L315.3 51.8 L315.6 51.5 L315.9 51.2 L316.2 51 L316.6 50.8 L317.1 50.5 L317.5 50.2 L318 50 L318.5 49.8 L318.9 49.5 L319.4 49.2 L319.8 49 L320.1 48.8 L320.4 48.5 L320.7 48.2 L320.9 48 L321 47.8 L321 47.5 L321 47.2 L320.9 47 L320.7 46.8 L320.4 46.5 L320.1 46.2 L319.8 46 L319.4 45.8 L318.9 45.5 L318.5 45.2 L318 45 L317.5 44.8 L317.1 44.5 L316.6 44.2 L316.2 44 L315.9 43.8 L315.6 43.5 L315.3 43.2 L315.1 43 L315 42.8 L315 42.5 L315 42.2 L315.1 42 L315.3 41.8 L315.6 41.5 L315.9 41.2 L316.2 41 L316.6 40.8 L317.1 40.5 L317.5 40.2 L318 40 L318.5 39.8 L318.9 39.5 L319.4 39.2 L319.8 39 L320.1 38.8 L320.4 38.5 L320.7 38.2 L320.9 38 L321 37.8 L321 37.5 L321 37.2 L320.9 37 L320.7 36.8 L320.4 36.5 L320.1 36.2 L319.8 36 L319.4 35.8 L318.9 35.5 L318.5 35.2 L318 35 L317.5 34.8 L317.1 34.5 L316.6 34.2 L316.2 34 L315.9 33.8 L315.6 33.5 L315.3 33.2 L315.1 33 L315 32.8 L315 32.5 L315 32.2 L315.1 32 L315.3 31.8 L315.6 31.5 L315.9 31.2 L316.2 31 L316.6 30.8 L317.1 30.5 L317.5 30.2 L318 30"/>
		<path pathLength="1" d="M315.7 60 a2.3 2.3 0 1 0 4.6 0 a2.3 2.3 0 1 0 -4.6 0"/>
		<path pathLength="1" d="M74 262 L74 118"/>
		<path pathLength="1" d="M146 262 L146 118"/>
		<path pathLength="1" d="M76.5 226.7 L74 222.4 L71.5 226.7"/>
		<path pathLength="1" d="M76.5 154.7 L74 150.4 L71.5 154.7"/>
		<path pathLength="1" d="M148.5 226.7 L146 222.4 L143.5 226.7"/>
		<path pathLength="1" d="M148.5 154.7 L146 150.4 L143.5 154.7"/>
		<path pathLength="1" d="M256 262 L256 118"/>
		<path pathLength="1" d="M344 262 L344 118"/>
		<path pathLength="1" d="M258.5 244.3 L256 240 L253.5 244.3"/>
		<path pathLength="1" d="M258.5 140.3 L256 136 L253.5 140.3"/>
		<path pathLength="1" d="M346.5 244.3 L344 240 L341.5 244.3"/>
		<path pathLength="1" d="M346.5 140.3 L344 136 L341.5 140.3"/>
	</g>
	<g stroke-width="0.9" opacity="0.8">
		<path pathLength="1" d="M74 190 L74.6 191.1 L75.2 192.1 L75.8 192.8 L76.4 193.3 L77 193.5 L77.6 193.3 L78.2 192.8 L78.8 192.1 L79.4 191.1 L80 190 L80.6 188.9 L81.2 187.9 L81.8 187.2 L82.4 186.7 L83 186.5 L83.6 186.7 L84.2 187.2 L84.8 187.9 L85.4 188.9 L86 190 L86.6 191.1 L87.2 192.1 L87.8 192.8 L88.4 193.3 L89 193.5 L89.6 193.3 L90.2 192.8 L90.8 192.1 L91.4 191.1 L92 190 L92.6 188.9 L93.2 187.9 L93.8 187.2 L94.4 186.7 L95 186.5 L95.6 186.7 L96.2 187.2 L96.8 187.9 L97.4 188.9 L98 190 L98.6 191.1 L99.2 192.1 L99.8 192.8 L100.4 193.3 L101 193.5 L101.6 193.3 L102.2 192.8 L102.8 192.1 L103.4 191.1 L104 190 L104.6 188.9 L105.2 187.9 L105.8 187.2 L106.4 186.7 L107 186.5 L107.6 186.7 L108.2 187.2 L108.8 187.9 L109.4 188.9 L110 190 L110.6 191.1 L111.2 192.1 L111.8 192.8 L112.4 193.3 L113 193.5 L113.6 193.3 L114.2 192.8 L114.8 192.1 L115.4 191.1 L116 190 L116.6 188.9 L117.2 187.9 L117.8 187.2 L118.4 186.7 L119 186.5 L119.6 186.7 L120.2 187.2 L120.8 187.9 L121.4 188.9 L122 190 L122.6 191.1 L123.2 192.1 L123.8 192.8 L124.4 193.3 L125 193.5 L125.6 193.3 L126.2 192.8 L126.8 192.1 L127.4 191.1 L128 190 L128.6 188.9 L129.2 187.9 L129.8 187.2 L130.4 186.7 L131 186.5 L131.6 186.7 L132.2 187.2 L132.8 187.9 L133.4 188.9 L134 190 L134.6 191.1 L135.2 192.1 L135.8 192.8 L136.4 193.3 L137 193.5 L137.6 193.3 L138.2 192.8 L138.8 192.1 L139.4 191.1 L140 190 L140.6 188.9 L141.2 187.9 L141.8 187.2 L142.4 186.7 L143 186.5 L143.6 186.7 L144.2 187.2 L144.8 187.9 L145.4 188.9 L146 190"/>
		<path pathLength="1" d="M256 222 L256.7 223.3 L257.5 224.3 L258.2 225.1 L258.9 225.5 L259.7 225.4 L260.4 224.8 L261.1 223.9 L261.9 222.7 L262.6 221.5 L263.3 220.2 L264.1 219.3 L264.8 218.7 L265.5 218.5 L266.3 218.8 L267 219.5 L267.7 220.6 L268.5 221.8 L269.2 223.1 L269.9 224.2 L270.7 225 L271.4 225.5 L272.1 225.4 L272.9 224.9 L273.6 224.1 L274.3 222.9 L275.1 221.6 L275.8 220.4 L276.5 219.4 L277.3 218.7 L278 218.5 L278.7 218.7 L279.5 219.4 L280.2 220.4 L280.9 221.6 L281.7 222.9 L282.4 224.1 L283.1 224.9 L283.9 225.4 L284.6 225.5 L285.3 225 L286.1 224.2 L286.8 223.1 L287.5 221.8 L288.3 220.6 L289 219.5 L289.7 218.8 L290.5 218.5 L291.2 218.7 L291.9 219.3 L292.7 220.2 L293.4 221.5 L294.1 222.7 L294.9 223.9 L295.6 224.8 L296.3 225.4 L297.1 225.5 L297.8 225.1 L298.5 224.3 L299.3 223.3 L300 222 L300.7 220.7 L301.5 219.7 L302.2 218.9 L302.9 218.5 L303.7 218.6 L304.4 219.2 L305.1 220.1 L305.9 221.3 L306.6 222.5 L307.3 223.8 L308.1 224.7 L308.8 225.3 L309.5 225.5 L310.3 225.2 L311 224.5 L311.7 223.4 L312.5 222.2 L313.2 220.9 L313.9 219.8 L314.7 219 L315.4 218.5 L316.1 218.6 L316.9 219.1 L317.6 219.9 L318.3 221.1 L319.1 222.4 L319.8 223.6 L320.5 224.6 L321.3 225.3 L322 225.5 L322.7 225.3 L323.5 224.6 L324.2 223.6 L324.9 222.4 L325.7 221.1 L326.4 219.9 L327.1 219.1 L327.9 218.6 L328.6 218.5 L329.3 219 L330.1 219.8 L330.8 220.9 L331.5 222.2 L332.3 223.4 L333 224.5 L333.7 225.2 L334.5 225.5 L335.2 225.3 L335.9 224.7 L336.7 223.8 L337.4 222.5 L338.1 221.3 L338.9 220.1 L339.6 219.2 L340.3 218.6 L341.1 218.5 L341.8 218.9 L342.5 219.7 L343.3 220.7 L344 222"/>
		<path pathLength="1" d="M256 158 L256.7 159.3 L257.5 160.3 L258.2 161.1 L258.9 161.5 L259.7 161.4 L260.4 160.8 L261.1 159.9 L261.9 158.7 L262.6 157.5 L263.3 156.2 L264.1 155.3 L264.8 154.7 L265.5 154.5 L266.3 154.8 L267 155.5 L267.7 156.6 L268.5 157.8 L269.2 159.1 L269.9 160.2 L270.7 161 L271.4 161.5 L272.1 161.4 L272.9 160.9 L273.6 160.1 L274.3 158.9 L275.1 157.6 L275.8 156.4 L276.5 155.4 L277.3 154.7 L278 154.5 L278.7 154.7 L279.5 155.4 L280.2 156.4 L280.9 157.6 L281.7 158.9 L282.4 160.1 L283.1 160.9 L283.9 161.4 L284.6 161.5 L285.3 161 L286.1 160.2 L286.8 159.1 L287.5 157.8 L288.3 156.6 L289 155.5 L289.7 154.8 L290.5 154.5 L291.2 154.7 L291.9 155.3 L292.7 156.2 L293.4 157.5 L294.1 158.7 L294.9 159.9 L295.6 160.8 L296.3 161.4 L297.1 161.5 L297.8 161.1 L298.5 160.3 L299.3 159.3 L300 158 L300.7 156.7 L301.5 155.7 L302.2 154.9 L302.9 154.5 L303.7 154.6 L304.4 155.2 L305.1 156.1 L305.9 157.3 L306.6 158.5 L307.3 159.8 L308.1 160.7 L308.8 161.3 L309.5 161.5 L310.3 161.2 L311 160.5 L311.7 159.4 L312.5 158.2 L313.2 156.9 L313.9 155.8 L314.7 155 L315.4 154.5 L316.1 154.6 L316.9 155.1 L317.6 155.9 L318.3 157.1 L319.1 158.4 L319.8 159.6 L320.5 160.6 L321.3 161.3 L322 161.5 L322.7 161.3 L323.5 160.6 L324.2 159.6 L324.9 158.4 L325.7 157.1 L326.4 155.9 L327.1 155.1 L327.9 154.6 L328.6 154.5 L329.3 155 L330.1 155.8 L330.8 156.9 L331.5 158.2 L332.3 159.4 L333 160.5 L333.7 161.2 L334.5 161.5 L335.2 161.3 L335.9 160.7 L336.7 159.8 L337.4 158.5 L338.1 157.3 L338.9 156.1 L339.6 155.2 L340.3 154.6 L341.1 154.5 L341.8 154.9 L342.5 155.7 L343.3 156.7 L344 158"/>
		<path pathLength="1" d="M71.7 190 a2.3 2.3 0 1 0 4.6 0 a2.3 2.3 0 1 0 -4.6 0"/>
		<path pathLength="1" d="M143.7 190 a2.3 2.3 0 1 0 4.6 0 a2.3 2.3 0 1 0 -4.6 0"/>
		<path pathLength="1" d="M253.7 222 a2.3 2.3 0 1 0 4.6 0 a2.3 2.3 0 1 0 -4.6 0"/>
		<path pathLength="1" d="M341.7 222 a2.3 2.3 0 1 0 4.6 0 a2.3 2.3 0 1 0 -4.6 0"/>
		<path pathLength="1" d="M253.7 158 a2.3 2.3 0 1 0 4.6 0 a2.3 2.3 0 1 0 -4.6 0"/>
		<path pathLength="1" d="M341.7 158 a2.3 2.3 0 1 0 4.6 0 a2.3 2.3 0 1 0 -4.6 0"/>
	</g>
	<g>
		<text x="69" y="80" font-size="7" text-anchor="middle" fill="currentColor" stroke="none" font-family="ui-monospace, monospace" letter-spacing="1">ELECTRON</text>
		<text x="195" y="80" font-size="7" text-anchor="middle" fill="currentColor" stroke="none" font-family="ui-monospace, monospace" letter-spacing="1">PHOTON</text>
		<text x="318" y="90" font-size="7" text-anchor="middle" fill="currentColor" stroke="none" font-family="ui-monospace, monospace" letter-spacing="1">VERTEX</text>
		<text x="69" y="46" font-size="7" text-anchor="middle" fill="currentColor" stroke="none" font-family="ui-monospace, monospace" letter-spacing="1">i / (p̸ − m)</text>
		<text x="195" y="46" font-size="7" text-anchor="middle" fill="currentColor" stroke="none" font-family="ui-monospace, monospace" letter-spacing="1">−i g / q²</text>
		<text x="352" y="40" font-size="7" text-anchor="start" fill="currentColor" stroke="none" font-family="ui-monospace, monospace" letter-spacing="1">−ieγ</text>
		<text x="110" y="284" font-size="7" text-anchor="middle" fill="currentColor" stroke="none" font-family="ui-monospace, monospace" letter-spacing="1">2 VERTICES · e² · α</text>
		<text x="300" y="284" font-size="7" text-anchor="middle" fill="currentColor" stroke="none" font-family="ui-monospace, monospace" letter-spacing="1">4 VERTICES · e⁴ · α²</text>
		<text x="110" y="114" font-size="7" text-anchor="middle" fill="currentColor" stroke="none" font-family="ui-monospace, monospace" letter-spacing="1">ONE PHOTON</text>
		<text x="300" y="114" font-size="7" text-anchor="middle" fill="currentColor" stroke="none" font-family="ui-monospace, monospace" letter-spacing="1">TWO PHOTONS</text>
		<text x="200" y="20" font-size="8" text-anchor="middle" fill="currentColor" stroke="none" font-family="ui-monospace, monospace" letter-spacing="1">EACH LINE A FACTOR · EACH DIAGRAM ONE TERM</text>
	</g>
</svg>
