<svg xmlns="http://www.w3.org/2000/svg" viewBox="0 0 400 300" fill="none" stroke="currentColor" stroke-width="1.25" stroke-linecap="round" stroke-linejoin="round" aria-hidden="true">
	<g stroke-width="0.6" opacity="0.55">
		<path pathLength="1" d="M48 24 L48 276"/>
		<path pathLength="1" d="M104 24 L104 276"/>
		<path pathLength="1" d="M160 24 L160 276"/>
		<path pathLength="1" d="M216 24 L216 276"/>
		<path pathLength="1" d="M272 24 L272 276"/>
		<path pathLength="1" d="M328 24 L328 276"/>
		<path pathLength="1" d="M20 52 L384 52"/>
		<path pathLength="1" d="M20 108 L384 108"/>
		<path pathLength="1" d="M20 164 L384 164"/>
		<path pathLength="1" d="M20 220 L384 220"/>
		<path pathLength="1" d="M20 24 L384 24 L384 276 L20 276 Z"/>
	</g>
	<g>
		<path pathLength="1" d="M377.8 237.1 L369.2 240.4 L358.5 240.7 L346.2 245.2 L344.2 243 L339.5 242.7 L337.2 245.8 L329.1 246.3 L315.4 242.4 L303.4 241.8 L297.5 244.1 L294.7 239.6 L296.4 231.8 L298.9 232.3 L309.8 227.3 L317.1 226.7 L340.3 236.2 L355.2 232.9 L365 237.6 L368 236.8 L371.7 232 L379.8 228.4 L381.8 226.2 L377.3 225.3 L379.8 222.5 L383.4 224.2 L384 229.2 L378.7 233.4 L379.8 235.7 Z"/>
		<path pathLength="1" d="M300.3 258.4 L306.2 262.3 L308.1 266.2 L314 266.8 L322.7 276 L298.9 276 L288.8 269.6 L285.2 269.3 L274.5 267.9 L270.9 262.6 L272.8 260.3 L280.4 258.4 L294.4 258.6 L298.3 256.4 Z"/>
		<path pathLength="1" d="M250.7 229 L253.5 229.8 L257.7 227.6 L261.1 227.8 L263.9 231.5 L265 229.2 L270 228.4 L273.1 232.9 L274.8 239.9 L265 240.7 L267.2 243.2 L256 244.1 L254.6 238.8 L249.3 243.5 L226.9 248.8 L217.7 250.8 L210.1 248.3 L211.5 234.8 L220.5 230.4 L232 232 L238.7 239.9 L243.2 240.4 L249.9 238.2 L250.4 236.5 L238.7 229.5 L237.3 224.2 L241.8 222.5 L247.4 223.4 Z"/>
		<path pathLength="1" d="M205.9 237.1 L202.3 243 L204.5 244.9 L198.6 246 L188.8 244.4 L184.1 242.1 L184.4 240.7 L188.8 241.6 L190.2 240.7 L189.7 232.3 L199.2 225.6 L208.2 229.5 Z"/>
		<path pathLength="1" d="M172.6 224.5 L179.6 231.5 L169.2 237.4 L166.2 243 L162.5 243.2 L163.9 239.6 L158.6 234 L148 229.8 L145.4 223.4 L158.3 225.3 L164.2 222 Z"/>
		<path pathLength="1" d="M313.2 24 L318.8 34.4 L328.8 35.5 L332.2 33.5 L338.6 24 L377.8 24 L370.3 33.8 L363 39.7 L352.1 43.3 L346.2 49.2 L338.9 47.2 L337.8 50.6 L349.6 58.7 L358.2 73 L364.1 77.5 L367.2 85.6 L365 87.8 L363 97.4 L372.2 104.6 L375.3 110.2 L379.8 109.7 L381.2 117.8 L379 118.9 L376.2 117.5 L376.2 119.5 L369.2 119.8 L359.1 123.1 L357.1 131.2 L349 131 L342.3 127 L341.7 124.2 L345.4 110.5 L339.8 107.4 L324.9 94.6 L329.4 84.8 L329.4 73 L327.7 70.8 L318.2 70.8 L309.5 76.4 L307 81.4 L310.9 89.8 L312.3 99.9 L310.1 110.5 L311.8 125.4 L307.8 140.2 L312 152.5 L308.7 151.1 L298.6 152.2 L292.2 155.3 L282.6 147.8 L282.1 144.7 L288.5 122.6 L289.4 108.8 L285.4 100.4 L285.2 94.3 L282.1 92.9 L271.7 95.1 L268.4 91.2 L266.7 84.5 L268.1 78 L265.8 72.2 L274.5 65.4 L276.8 55.9 L281 50 L280.7 35.5 L285.2 24 Z"/>
		<path pathLength="1" d="M20 189.5 L32 190.6 L36.2 186.7 L40.7 177.2 L47.2 176.3 L53 183.3 L63.1 182.2 L78.5 188.9 L91.1 190 L94.2 198.2 L98.1 200.4 L98.1 207.4 L111 212.2 L134 209.6 L142.6 213.6 L144.3 217.2 L142.9 231.5 L145.4 236.8 L148.8 239 L148.2 241.6 L139.8 237.1 L130.3 236 L111 228.1 L95 231.5 L62.3 228.7 L37.1 224.2 L20 216.6 Z"/>
		<path pathLength="1" d="M220.5 24 L213.5 30.2 L210.4 29 L208.7 25.1 L209 33.2 L195.8 45.8 L199.8 45.8 L199.8 53.4 L196.7 55.9 L202.8 57.9 L203.4 63.5 L202.8 66.3 L197 67.4 L196.7 68.8 L198.6 68.2 L197.2 77.2 L192.2 79.4 L195.3 83.6 L189.7 89.8 L186.9 96.8 L151.3 112.8 L149.6 111.1 L146.8 90.6 L144.6 93.4 L140.4 90.1 L141.5 86.7 L138.7 90.1 L134.2 87.8 L130.9 90.9 L123.9 92.9 L121.6 91.8 L121.1 85.6 L113.5 87 L104.8 78 L103.2 85.3 L97.3 89 L92.8 91.2 L83.8 89 L72.1 95.4 L71 81.7 L67.3 76.9 L65.6 79.4 L58.4 78 L46 82 L43.2 80 L45.2 77.5 L39.6 80.6 L36 76.9 L27.3 79.2 L22.8 52 L20 48.9 L20 24 Z"/>
		<path pathLength="1" d="M127.5 195.1 L122.5 195.1 L117.2 198.2 L107.6 198.2 L97.3 195.9 L96.4 194 L100.4 189.2 L106 188.6 L131.2 188.4 L134.2 191.7 Z"/>
		<path pathLength="1" d="M384 134.3 L384 147.2 L378.7 154.8 L374.2 154.5 L372.5 149.7 L377.6 141.9 L379.8 125.4 L384 119.5 Z"/>
		<path pathLength="1" d="M374.2 143.6 L371.7 146.9 L366.9 145.5 L364.7 146.6 L365.2 139.9 L367.2 138 L365.2 131.8 L366.4 129.6 L375.6 125.4 L377.3 134 L373.1 139.9 Z"/>
		<path pathLength="1" d="M357.1 148.3 L355.4 148.9 L350.7 143.3 L352.4 138.8 L355.2 138.2 L357.1 140.5 Z"/>
		<path pathLength="1" d="M384 37.7 L380.9 40.5 L378.7 36 L381.5 29 L384 29 Z"/>
		<path pathLength="1" d="M314.8 172.4 L313.7 176.9 L312.6 166.5 L313.4 157.8 L314.8 161.2 Z"/>
		<path pathLength="1" d="M284.9 240.7 L282.9 240.7 L282.6 236.5 L284.6 232 L285.4 233.2 L287.4 233.4 L287.7 235.4 L284.3 238.8 Z"/>
		<path pathLength="1" d="M274 226.7 L272.6 225.6 L274.8 223.9 L275.6 225.6 Z"/>
		<path pathLength="1" d="M177.1 241.6 L176.2 242.4 L173.4 240.2 L175.1 239 Z"/>
		<path pathLength="1" d="M170.6 191.2 L168.4 191.7 L166.2 189.5 L171.5 187.5 L175.4 190.3 Z"/>
		<path pathLength="1" d="M96.2 158.7 L92.8 159.5 L94.2 156.4 L96.4 157 Z"/>
		<path pathLength="1" d="M199.8 92.9 L198.9 97.9 L197.2 95.1 L199.2 91.8 Z"/>
		<path pathLength="1" d="M196.4 104.4 L190.5 109.4 L188.6 99.6 L191.4 89.5 L195.6 87 Z"/>
		<path pathLength="1" d="M321.6 195.4 L317.9 195.4 L317.6 192.6 L321.8 193.7 Z"/>
		<path pathLength="1" d="M383.4 235.4 L380.9 236.5 L382 234 L384 232.6 Z"/>
		<path pathLength="1" d="M231.7 230.4 L229.7 229.8 L229.7 225 L234.8 224.2 Z"/>
	</g>
	<g>
		<path pathLength="1" d="M182.4 276 L182.4 243.8 L184.6 225.6 L204.8 178 L231.4 133.2 L239.8 91.2 L255.2 57.6 L265 24"/>
	</g>
	<g stroke-width="0.9" opacity="0.8">
		<path pathLength="1" d="M36.8 263.4 L62.2 263.4"/>
		<path pathLength="1" d="M36.8 260.9 L36.8 265.9"/>
		<path pathLength="1" d="M62.2 260.9 L62.2 265.9"/>
	</g>
	<g stroke-width="0.9" opacity="0.8">
		<text x="120.8" y="63.2" font-size="7" text-anchor="middle" fill="currentColor" stroke="none" font-family="ui-monospace, monospace" letter-spacing="1">BORNEO</text>
		<text x="333.6" y="80" font-size="7" text-anchor="middle" fill="currentColor" stroke="none" font-family="ui-monospace, monospace" letter-spacing="1">SULAWESI</text>
		<text x="64.8" y="192" font-size="7" text-anchor="middle" fill="currentColor" stroke="none" font-family="ui-monospace, monospace" letter-spacing="1">JAVA</text>
		<text x="164.2" y="255" font-size="7" text-anchor="middle" fill="currentColor" stroke="none" font-family="ui-monospace, monospace" letter-spacing="1">BALI</text>
		<text x="197.8" y="255" font-size="7" text-anchor="middle" fill="currentColor" stroke="none" font-family="ui-monospace, monospace" letter-spacing="1">LOMBOK</text>
		<text x="217.4" y="151.4" font-size="7" text-anchor="end" fill="currentColor" stroke="none" font-family="ui-monospace, monospace" letter-spacing="1">WALLACE'S LINE</text>
		<text x="112.4" y="124.8" font-size="7" text-anchor="middle" fill="currentColor" stroke="none" font-family="ui-monospace, monospace" letter-spacing="1">BARBETS · WOODPECKERS</text>
		<text x="308.4" y="189.2" font-size="7" text-anchor="middle" fill="currentColor" stroke="none" font-family="ui-monospace, monospace" letter-spacing="1">COCKATOOS · HONEYEATERS</text>
		<text x="49.5" y="258.4" font-size="7" text-anchor="middle" fill="currentColor" stroke="none" font-family="ui-monospace, monospace" letter-spacing="1">100 KM</text>
	</g>
</svg>
