<svg xmlns="http://www.w3.org/2000/svg" viewBox="0 0 400 300" fill="none" stroke="currentColor" stroke-width="1.25" stroke-linecap="round" stroke-linejoin="round" aria-hidden="true">
	<g stroke-width="0.6" opacity="0.55">
		<path pathLength="1" d="M22 112 a70 70 0 1 0 140 0 a70 70 0 1 0 -140 0"/>
		<path pathLength="1" d="M92 50 L92 42"/>
		<path pathLength="1" d="M108 52.1 L109.1 48.2"/>
		<path pathLength="1" d="M123 58.3 L125 54.8"/>
		<path pathLength="1" d="M135.8 68.2 L138.7 65.3"/>
		<path pathLength="1" d="M145.7 81 L149.2 79"/>
		<path pathLength="1" d="M151.9 96 L155.8 94.9"/>
		<path pathLength="1" d="M154 112 L162 112"/>
		<path pathLength="1" d="M151.9 128 L155.8 129.1"/>
		<path pathLength="1" d="M145.7 143 L149.2 145"/>
		<path pathLength="1" d="M135.8 155.8 L138.7 158.7"/>
		<path pathLength="1" d="M123 165.7 L125 169.2"/>
		<path pathLength="1" d="M108 171.9 L109.1 175.8"/>
		<path pathLength="1" d="M92 174 L92 182"/>
		<path pathLength="1" d="M76 171.9 L74.9 175.8"/>
		<path pathLength="1" d="M61 165.7 L59 169.2"/>
		<path pathLength="1" d="M48.2 155.8 L45.3 158.7"/>
		<path pathLength="1" d="M38.3 143 L34.8 145"/>
		<path pathLength="1" d="M32.1 128 L28.2 129.1"/>
		<path pathLength="1" d="M30 112 L22 112"/>
		<path pathLength="1" d="M32.1 96 L28.2 94.9"/>
		<path pathLength="1" d="M38.3 81 L34.8 79"/>
		<path pathLength="1" d="M48.2 68.2 L45.3 65.3"/>
		<path pathLength="1" d="M61 58.3 L59 54.8"/>
		<path pathLength="1" d="M76 52.1 L74.9 48.2"/>
		<path pathLength="1" d="M92 38 L92 186"/>
		<path pathLength="1" d="M196 89 L196 95"/>
		<path pathLength="1" d="M203.2 89 L203.2 95"/>
		<path pathLength="1" d="M210.4 89 L210.4 95"/>
		<path pathLength="1" d="M217.6 89 L217.6 95"/>
		<path pathLength="1" d="M224.8 89 L224.8 95"/>
		<path pathLength="1" d="M232 89 L232 95"/>
		<path pathLength="1" d="M239.2 89 L239.2 95"/>
		<path pathLength="1" d="M246.4 89 L246.4 95"/>
		<path pathLength="1" d="M253.6 89 L253.6 95"/>
		<path pathLength="1" d="M260.8 89 L260.8 95"/>
		<path pathLength="1" d="M268 89 L268 95"/>
		<path pathLength="1" d="M275.2 89 L275.2 95"/>
		<path pathLength="1" d="M282.4 89 L282.4 95"/>
		<path pathLength="1" d="M289.6 89 L289.6 95"/>
		<path pathLength="1" d="M296.8 89 L296.8 95"/>
		<path pathLength="1" d="M304 89 L304 95"/>
		<path pathLength="1" d="M311.2 89 L311.2 95"/>
		<path pathLength="1" d="M318.4 89 L318.4 95"/>
		<path pathLength="1" d="M325.6 89 L325.6 95"/>
		<path pathLength="1" d="M332.8 89 L332.8 95"/>
		<path pathLength="1" d="M340 89 L340 95"/>
		<path pathLength="1" d="M347.2 89 L347.2 95"/>
		<path pathLength="1" d="M354.4 89 L354.4 95"/>
		<path pathLength="1" d="M361.6 89 L361.6 95"/>
		<path pathLength="1" d="M368.8 89 L368.8 95"/>
		<path pathLength="1" d="M376 89 L376 95"/>
		<path pathLength="1" d="M203.2 96 L203.2 118"/>
		<path pathLength="1" d="M289.6 96 L289.6 118"/>
		<path pathLength="1" d="M376 96 L376 118"/>
	</g>
	<g>
		<path pathLength="1" d="M30 112 a62 62 0 1 0 124 0 a62 62 0 1 0 -124 0"/>
		<path pathLength="1" d="M135.3 137 L133.6 139.8 L131.7 142.4 L129.6 145 L127.4 147.4 L125 149.6 L122.4 151.7 L119.8 153.6 L117 155.3 L114.1 156.8 L111.1 158.2 L108.1 159.3 L104.9 160.3 L101.8 161 L98.5 161.6 L95.3 161.9 L92 162 L88.7 161.9 L85.5 161.6 L82.2 161 L79.1 160.3 L75.9 159.3 L72.9 158.2 L69.9 156.8 L67 155.3 L64.2 153.6 L61.6 151.7 L59 149.6 L56.6 147.4 L54.4 145 L52.3 142.4 L50.4 139.8 L48.7 137 L47.2 134.1 L45.8 131.1 L44.7 128.1 L43.7 124.9 L43 121.8 L42.4 118.5 L42.1 115.3 L42 112 L42.1 108.7 L42.4 105.5 L43 102.2 L43.7 99.1 L44.7 95.9 L45.8 92.9 L47.2 89.9 L48.7 87"/>
		<path pathLength="1" d="M130.1 134 L140.5 140"/>
		<path pathLength="1" d="M53.9 90 L43.5 84"/>
		<path pathLength="1" d="M196 92 L376 92"/>
		<path pathLength="1" d="M196 88 L203.2 88 L203.2 96 L196 96 Z"/>
	</g>
	<g stroke-width="0.9" opacity="0.8">
		<path pathLength="1" d="M64 214 L77 214 L77 227 L64 227 Z"/>
		<path pathLength="1" d="M81 214 L94 214 L94 227 L81 227 Z"/>
		<path pathLength="1" d="M98 214 L111 214 L111 227 L98 227 Z"/>
		<path pathLength="1" d="M115 214 L128 214 L128 227 L115 227 Z"/>
		<path pathLength="1" d="M132 214 L145 214 L145 227 L132 227 Z"/>
		<path pathLength="1" d="M64 258 L77 258 L77 271 L64 271 Z"/>
		<path pathLength="1" d="M81 258 L94 258 L94 271 L81 271 Z"/>
		<path pathLength="1" d="M98 258 L111 258 L111 271 L98 271 Z"/>
		<path pathLength="1" d="M115 258 L128 258 L128 271 L115 271 Z"/>
		<path pathLength="1" d="M132 258 L145 258 L145 271 L132 271 Z"/>
		<path pathLength="1" d="M149 258 L162 258 L162 271 L149 271 Z"/>
		<path pathLength="1" d="M166 258 L179 258 L179 271 L166 271 Z"/>
		<path pathLength="1" d="M183 258 L196 258 L196 271 L183 271 Z"/>
		<path pathLength="1" d="M200 258 L213 258 L213 271 L200 271 Z"/>
		<path pathLength="1" d="M203 264.5 L210 264.5"/>
		<path pathLength="1" d="M206.5 261 L206.5 268"/>
		<path pathLength="1" d="M217 258 L230 258 L230 271 L217 271 Z"/>
		<path pathLength="1" d="M220 264.5 L227 264.5"/>
		<path pathLength="1" d="M223.5 261 L223.5 268"/>
		<path pathLength="1" d="M234 258 L247 258 L247 271 L234 271 Z"/>
		<path pathLength="1" d="M237 264.5 L244 264.5"/>
		<path pathLength="1" d="M240.5 261 L240.5 268"/>
		<path pathLength="1" d="M251 258 L264 258 L264 271 L251 271 Z"/>
		<path pathLength="1" d="M254 264.5 L261 264.5"/>
		<path pathLength="1" d="M257.5 261 L257.5 268"/>
		<path pathLength="1" d="M268 258 L281 258 L281 271 L268 271 Z"/>
		<path pathLength="1" d="M271 264.5 L278 264.5"/>
		<path pathLength="1" d="M274.5 261 L274.5 268"/>
		<path pathLength="1" d="M285 258 L298 258 L298 271 L285 271 Z"/>
		<path pathLength="1" d="M288 264.5 L295 264.5"/>
		<path pathLength="1" d="M291.5 261 L291.5 268"/>
		<path pathLength="1" d="M302 258 L315 258 L315 271 L302 271 Z"/>
		<path pathLength="1" d="M305 264.5 L312 264.5"/>
		<path pathLength="1" d="M308.5 261 L308.5 268"/>
		<path pathLength="1" d="M319 258 L332 258 L332 271 L319 271 Z"/>
		<path pathLength="1" d="M322 264.5 L329 264.5"/>
		<path pathLength="1" d="M325.5 261 L325.5 268"/>
		<path pathLength="1" d="M336 258 L349 258 L349 271 L336 271 Z"/>
		<path pathLength="1" d="M339 264.5 L346 264.5"/>
		<path pathLength="1" d="M342.5 261 L342.5 268"/>
		<path pathLength="1" d="M353 258 L366 258 L366 271 L353 271 Z"/>
		<path pathLength="1" d="M356 264.5 L363 264.5"/>
		<path pathLength="1" d="M359.5 261 L359.5 268"/>
		<path pathLength="1" d="M370 258 L383 258 L383 271 L370 271 Z"/>
		<path pathLength="1" d="M374 260 L374 269"/>
		<path pathLength="1" d="M376.5 260 L376.5 269"/>
		<path pathLength="1" d="M379 260 L379 269"/>
	</g>
	<g stroke-width="0.9" opacity="0.8">
		<text x="92" y="116" font-size="7" text-anchor="middle" fill="currentColor" stroke="none" font-family="ui-monospace, monospace" letter-spacing="1">ON DUTY</text>
		<text x="92" y="34" font-size="7" text-anchor="middle" fill="currentColor" stroke="none" font-family="ui-monospace, monospace" letter-spacing="1">MIDNIGHT</text>
		<text x="174" y="115" font-size="7" text-anchor="middle" fill="currentColor" stroke="none" font-family="ui-monospace, monospace" letter-spacing="1">6</text>
		<text x="10" y="115" font-size="7" text-anchor="middle" fill="currentColor" stroke="none" font-family="ui-monospace, monospace" letter-spacing="1">18</text>
		<text x="92" y="194" font-size="7" text-anchor="middle" fill="currentColor" stroke="none" font-family="ui-monospace, monospace" letter-spacing="1">NOON</text>
		<text x="199.6" y="82" font-size="7" text-anchor="middle" fill="currentColor" stroke="none" font-family="ui-monospace, monospace" letter-spacing="1">PROBATION</text>
		<text x="246.4" y="112" font-size="7" text-anchor="middle" fill="currentColor" stroke="none" font-family="ui-monospace, monospace" letter-spacing="1">$12 A MONTH</text>
		<text x="332.8" y="112" font-size="7" text-anchor="middle" fill="currentColor" stroke="none" font-family="ui-monospace, monospace" letter-spacing="1">$15 A MONTH</text>
		<text x="289.6" y="82" font-size="7" text-anchor="middle" fill="currentColor" stroke="none" font-family="ui-monospace, monospace" letter-spacing="1">TWO YEARS</text>
		<text x="28" y="224" font-size="7" text-anchor="middle" fill="currentColor" stroke="none" font-family="ui-monospace, monospace" letter-spacing="1">1888</text>
		<text x="28" y="268" font-size="7" text-anchor="middle" fill="currentColor" stroke="none" font-family="ui-monospace, monospace" letter-spacing="1">1892</text>
		<text x="192" y="224" font-size="7" text-anchor="middle" fill="currentColor" stroke="none" font-family="ui-monospace, monospace" letter-spacing="1">5 MEDICAL WARDS</text>
		<text x="283" y="288" font-size="7" text-anchor="middle" fill="currentColor" stroke="none" font-family="ui-monospace, monospace" letter-spacing="1">8 MEDICAL · 10 SURGICAL · 1 PRISON</text>
	</g>
</svg>
