<svg xmlns="http://www.w3.org/2000/svg" viewBox="0 0 400 300" fill="none" stroke="currentColor" stroke-width="1.25" stroke-linecap="round" stroke-linejoin="round" aria-hidden="true">
	<g stroke-width="0.6" opacity="0.55">
		<path pathLength="1" d="M30 64 L370 64"/>
		<path pathLength="1" d="M320 24 L320 104"/>
		<path pathLength="1" d="M30 58.5 L34.8 58.5 L39.7 58.5 L44.5 58.4 L49.3 58.4 L54.2 58.4 L59 58.4 L63.8 58.3 L68.7 58.3 L73.5 58.3 L78.3 58.2 L83.2 58.2 L88 58.2 L92.8 58.2 L97.7 58.1 L102.5 58.1 L107.3 58.1 L112.2 58 L117 58 L121.8 58 L126.7 57.9 L131.5 57.9 L136.3 57.8 L141.2 57.8 L146 57.8 L150.8 57.7 L155.7 57.7 L160.5 57.6 L165.3 57.6 L170.2 57.5 L175 57.5 L179.8 57.4 L184.7 57.4 L189.5 57.3 L194.3 57.3 L199.2 57.2 L204 57.1 L208.8 57.1 L213.7 57 L218.5 56.9 L223.3 56.8 L228.2 56.7 L233 56.6 L237.8 56.5 L242.7 56.4 L247.5 56.3 L252.3 56.2 L257.2 56 L262 55.9 L266.8 55.7 L271.7 55.5 L276.5 55.3 L281.3 55.1 L286.2 54.8 L291 54.5 L295.8 54.1 L300.7 53.7 L305.5 53.1 L310.3 52.2 L315.2 50.9 L320 48.3"/>
		<path pathLength="1" d="M30 69.5 L34.8 69.5 L39.7 69.5 L44.5 69.6 L49.3 69.6 L54.2 69.6 L59 69.6 L63.8 69.7 L68.7 69.7 L73.5 69.7 L78.3 69.8 L83.2 69.8 L88 69.8 L92.8 69.8 L97.7 69.9 L102.5 69.9 L107.3 69.9 L112.2 70 L117 70 L121.8 70 L126.7 70.1 L131.5 70.1 L136.3 70.2 L141.2 70.2 L146 70.2 L150.8 70.3 L155.7 70.3 L160.5 70.4 L165.3 70.4 L170.2 70.5 L175 70.5 L179.8 70.6 L184.7 70.6 L189.5 70.7 L194.3 70.7 L199.2 70.8 L204 70.9 L208.8 70.9 L213.7 71 L218.5 71.1 L223.3 71.2 L228.2 71.3 L233 71.4 L237.8 71.5 L242.7 71.6 L247.5 71.7 L252.3 71.8 L257.2 72 L262 72.1 L266.8 72.3 L271.7 72.5 L276.5 72.7 L281.3 72.9 L286.2 73.2 L291 73.5 L295.8 73.9 L300.7 74.3 L305.5 74.9 L310.3 75.8 L315.2 77.1 L320 79.7"/>
		<path pathLength="1" d="M82 230 a28 28 0 1 0 56 0 a28 28 0 1 0 -56 0"/>
	</g>
	<g>
		<path pathLength="1" d="M110 230 L360 230"/>
		<path pathLength="1" d="M110 230 L110 112"/>
		<path pathLength="1" d="M103 237 L117 223"/>
		<path pathLength="1" d="M360 221 L360 239"/>
		<path pathLength="1" d="M101 112 L119 112"/>
		<path pathLength="1" d="M40 225 L58 225 L58 235 L40 235 Z"/>
		<path pathLength="1" d="M58 230 L110 230"/>
		<path pathLength="1" d="M110 230 L110 270"/>
		<path pathLength="1" d="M104 270 L116 270 L116 280 L104 280 Z"/>
		<path pathLength="1" d="M30 64 L30.3 63.3 L30.6 62.6 L31 61.9 L31.3 61.2 L31.6 60.6 L31.9 60.1 L32.3 59.6 L32.6 59.2 L32.9 58.9 L33.2 58.7 L33.5 58.5 L33.9 58.5 L34.2 58.5 L34.5 58.7 L34.8 58.9 L35.2 59.3 L35.5 59.7 L35.8 60.2 L36.1 60.8 L36.4 61.4 L36.8 62.1 L37.1 62.8 L37.4 63.5 L37.7 64.2 L38.1 65 L38.4 65.7 L38.7 66.4 L39 67 L39.3 67.6 L39.7 68.1 L40 68.6 L40.3 69 L40.6 69.3 L41 69.4 L41.3 69.5 L41.6 69.5 L41.9 69.4 L42.2 69.2 L42.6 68.9 L42.9 68.6 L43.2 68.1 L43.5 67.5 L43.9 66.9 L44.2 66.3 L44.5 65.6 L44.8 64.8 L45.1 64.1 L45.5 63.3 L45.8 62.6 L46.1 61.9 L46.4 61.2 L46.8 60.6 L47.1 60 L47.4 59.5 L47.7 59.1 L48 58.8 L48.4 58.6 L48.7 58.4 L49 58.4 L49.3 58.5 L49.7 58.7 L50 58.9 L50.3 59.3 L50.6 59.7 L50.9 60.3 L51.3 60.9 L51.6 61.5 L51.9 62.2 L52.2 63 L52.6 63.7 L52.9 64.5 L53.2 65.3 L53.5 66 L53.8 66.7 L54.2 67.3 L54.5 67.9 L54.8 68.4 L55.1 68.9 L55.5 69.2 L55.8 69.4 L56.1 69.6 L56.4 69.6 L56.7 69.6 L57.1 69.4 L57.4 69.1 L57.7 68.8 L58 68.3 L58.4 67.8 L58.7 67.2 L59 66.5 L59.3 65.8 L59.6 65 L60 64.2 L60.3 63.5 L60.6 62.7 L60.9 62 L61.3 61.3 L61.6 60.6 L61.9 60 L62.2 59.5 L62.5 59.1 L62.9 58.7 L63.2 58.5 L63.5 58.4 L63.8 58.3 L64.2 58.4 L64.5 58.6 L64.8 58.9 L65.1 59.3 L65.4 59.8 L65.8 60.3 L66.1 61 L66.4 61.7 L66.7 62.4 L67.1 63.2 L67.4 64 L67.7 64.7 L68 65.5 L68.3 66.3 L68.7 67 L69 67.6 L69.3 68.2 L69.6 68.7 L70 69.1 L70.3 69.4 L70.6 69.6 L70.9 69.7 L71.2 69.7 L71.6 69.6 L71.9 69.3 L72.2 69 L72.5 68.5 L72.9 68 L73.2 67.4 L73.5 66.7 L73.8 66 L74.1 65.2 L74.5 64.4 L74.8 63.6 L75.1 62.8 L75.4 62.1 L75.8 61.3 L76.1 60.6 L76.4 60 L76.7 59.5 L77 59 L77.4 58.7 L77.7 58.4 L78 58.3 L78.3 58.3 L78.7 58.3 L79 58.5 L79.3 58.9 L79.6 59.3 L79.9 59.8 L80.3 60.4 L80.6 61 L80.9 61.8 L81.2 62.5 L81.6 63.3 L81.9 64.2 L82.2 65 L82.5 65.8 L82.8 66.5 L83.2 67.2 L83.5 67.9 L83.8 68.5 L84.1 68.9 L84.5 69.3 L84.8 69.6 L85.1 69.7 L85.4 69.8 L85.7 69.7 L86.1 69.5 L86.4 69.2 L86.7 68.8 L87 68.3 L87.4 67.7 L87.7 67 L88 66.3 L88.3 65.5 L88.6 64.7 L89 63.9 L89.3 63 L89.6 62.2 L89.9 61.4 L90.3 60.7 L90.6 60.1 L90.9 59.5 L91.2 59 L91.5 58.6 L91.9 58.3 L92.2 58.2 L92.5 58.2 L92.8 58.3 L93.2 58.5 L93.5 58.8 L93.8 59.2 L94.1 59.8 L94.4 60.4 L94.8 61.1 L95.1 61.9 L95.4 62.7 L95.7 63.5 L96.1 64.3 L96.4 65.2 L96.7 66 L97 66.8 L97.3 67.5 L97.7 68.2 L98 68.7 L98.3 69.2 L98.6 69.5 L99 69.8 L99.3 69.9 L99.6 69.9 L99.9 69.7 L100.2 69.5 L100.6 69.1 L100.9 68.6 L101.2 68 L101.5 67.3 L101.9 66.6 L102.2 65.8 L102.5 65 L102.8 64.1 L103.1 63.2 L103.5 62.4 L103.8 61.6 L104.1 60.8 L104.4 60.1 L104.8 59.5 L105.1 59 L105.4 58.6 L105.7 58.3 L106 58.1 L106.4 58.1 L106.7 58.2 L107 58.4 L107.3 58.7 L107.7 59.2 L108 59.7 L108.3 60.4 L108.6 61.1 L108.9 61.9 L109.3 62.8 L109.6 63.7 L109.9 64.5 L110.2 65.4 L110.6 66.3 L110.9 67.1 L111.2 67.8 L111.5 68.4 L111.8 69 L112.2 69.4 L112.5 69.7 L112.8 69.9 L113.1 70 L113.5 69.9 L113.8 69.7 L114.1 69.4 L114.4 68.9 L114.7 68.3 L115.1 67.7 L115.4 66.9 L115.7 66.1 L116 65.2 L116.4 64.4 L116.7 63.5 L117 62.6 L117.3 61.7 L117.6 60.9 L118 60.2 L118.3 59.5 L118.6 59 L118.9 58.5 L119.3 58.2 L119.6 58 L119.9 58 L120.2 58.1 L120.5 58.3 L120.9 58.7 L121.2 59.1 L121.5 59.7 L121.8 60.4 L122.2 61.2 L122.5 62.1 L122.8 62.9 L123.1 63.9 L123.4 64.8 L123.8 65.7 L124.1 66.5 L124.4 67.3 L124.7 68.1 L125.1 68.7 L125.4 69.2 L125.7 69.6 L126 69.9 L126.3 70.1 L126.7 70.1 L127 69.9 L127.3 69.6 L127.6 69.2 L128 68.7 L128.3 68 L128.6 67.3 L128.9 66.4 L129.2 65.5 L129.6 64.6 L129.9 63.7 L130.2 62.8 L130.5 61.9 L130.9 61 L131.2 60.2 L131.5 59.5 L131.8 58.9 L132.1 58.5 L132.5 58.1 L132.8 57.9 L133.1 57.9 L133.4 58 L133.8 58.2 L134.1 58.6 L134.4 59.1 L134.7 59.7 L135 60.5 L135.4 61.3 L135.7 62.2 L136 63.1 L136.3 64.1 L136.7 65 L137 66 L137.3 66.9 L137.6 67.7 L137.9 68.4 L138.3 69 L138.6 69.5 L138.9 69.9 L139.2 70.1 L139.6 70.2 L139.9 70.1 L140.2 69.9 L140.5 69.5 L140.8 69 L141.2 68.3 L141.5 67.6 L141.8 66.8 L142.1 65.8 L142.5 64.9 L142.8 63.9 L143.1 62.9 L143.4 62 L143.7 61.1 L144.1 60.2 L144.4 59.5 L144.7 58.9 L145 58.4 L145.4 58 L145.7 57.8 L146 57.8 L146.3 57.9 L146.6 58.1 L147 58.5 L147.3 59.1 L147.6 59.8 L147.9 60.6 L148.3 61.4 L148.6 62.4 L148.9 63.4 L149.2 64.4 L149.5 65.4 L149.9 66.3 L150.2 67.2 L150.5 68 L150.8 68.8 L151.2 69.4 L151.5 69.8 L151.8 70.1 L152.1 70.3 L152.4 70.3 L152.8 70.1 L153.1 69.8 L153.4 69.3 L153.7 68.6 L154.1 67.9 L154.4 67 L154.7 66.1 L155 65.1 L155.3 64.1 L155.7 63.1 L156 62.1 L156.3 61.1 L156.6 60.2 L157 59.5 L157.3 58.8 L157.6 58.3 L157.9 57.9 L158.2 57.7 L158.6 57.7 L158.9 57.8 L159.2 58.1 L159.5 58.5 L159.9 59.1 L160.2 59.9 L160.5 60.7 L160.8 61.6 L161.1 62.6 L161.5 63.7 L161.8 64.7 L162.1 65.8 L162.4 66.8 L162.8 67.7 L163.1 68.5 L163.4 69.2 L163.7 69.7 L164 70.1 L164.4 70.3 L164.7 70.4 L165 70.3 L165.3 70 L165.7 69.5 L166 68.9 L166.3 68.2 L166.6 67.3 L166.9 66.3 L167.3 65.3 L167.6 64.2 L167.9 63.2 L168.2 62.1 L168.6 61.1 L168.9 60.2 L169.2 59.4 L169.5 58.7 L169.8 58.1 L170.2 57.8 L170.5 57.6 L170.8 57.5 L171.1 57.7 L171.5 58 L171.8 58.6 L172.1 59.2 L172.4 60 L172.7 61 L173.1 62 L173.4 63 L173.7 64.1 L174 65.2 L174.4 66.3 L174.7 67.3 L175 68.2 L175.3 69 L175.6 69.6 L176 70.1 L176.3 70.4 L176.6 70.5 L176.9 70.5 L177.3 70.2 L177.6 69.8 L177.9 69.1 L178.2 68.4 L178.5 67.5 L178.9 66.5 L179.2 65.4 L179.5 64.3 L179.8 63.2 L180.2 62.1 L180.5 61 L180.8 60 L181.1 59.2 L181.4 58.5 L181.8 57.9 L182.1 57.6 L182.4 57.4 L182.7 57.4 L183.1 57.7 L183.4 58.1 L183.7 58.7 L184 59.4 L184.3 60.3 L184.7 61.3 L185 62.4 L185.3 63.6 L185.6 64.7 L186 65.9 L186.3 67 L186.6 67.9 L186.9 68.8 L187.2 69.6 L187.6 70.1 L187.9 70.5 L188.2 70.7 L188.5 70.6 L188.9 70.4 L189.2 69.9 L189.5 69.3 L189.8 68.5 L190.1 67.6 L190.5 66.5 L190.8 65.4 L191.1 64.2 L191.4 63 L191.8 61.9 L192.1 60.8 L192.4 59.8 L192.7 58.9 L193 58.2 L193.4 57.7 L193.7 57.4 L194 57.3 L194.3 57.4 L194.7 57.7 L195 58.2 L195.3 58.9 L195.6 59.8 L195.9 60.8 L196.3 61.9 L196.6 63.1 L196.9 64.3 L197.2 65.5 L197.6 66.7 L197.9 67.8 L198.2 68.7 L198.5 69.5 L198.8 70.2 L199.2 70.6 L199.5 70.8 L199.8 70.8 L200.1 70.5 L200.5 70.1 L200.8 69.4 L201.1 68.6 L201.4 67.6 L201.7 66.4 L202.1 65.2 L202.4 64 L202.7 62.7 L203 61.5 L203.4 60.4 L203.7 59.4 L204 58.5 L204.3 57.8 L204.6 57.4 L205 57.1 L205.3 57.1 L205.6 57.4 L205.9 57.8 L206.3 58.5 L206.6 59.4 L206.9 60.4 L207.2 61.5 L207.5 62.8 L207.9 64.1 L208.2 65.3 L208.5 66.6 L208.8 67.7 L209.2 68.8 L209.5 69.6 L209.8 70.3 L210.1 70.8 L210.4 71 L210.8 70.9 L211.1 70.6 L211.4 70.1 L211.7 69.4 L212.1 68.4 L212.4 67.3 L212.7 66.1 L213 64.8 L213.3 63.5 L213.7 62.2 L214 60.9 L214.3 59.8 L214.6 58.8 L215 58 L215.3 57.4 L215.6 57 L215.9 56.9 L216.2 57.1 L216.6 57.5 L216.9 58.2 L217.2 59.1 L217.5 60.1 L217.9 61.3 L218.2 62.6 L218.5 64 L218.8 65.4 L219.1 66.7 L219.5 67.9 L219.8 69 L220.1 69.9 L220.4 70.6 L220.8 71 L221.1 71.1 L221.4 71 L221.7 70.7 L222 70 L222.4 69.2 L222.7 68.1 L223 66.9 L223.3 65.5 L223.7 64.1 L224 62.7 L224.3 61.3 L224.6 60.1 L224.9 58.9 L225.3 58 L225.6 57.3 L225.9 56.9 L226.2 56.8 L226.6 56.9 L226.9 57.3 L227.2 58 L227.5 58.9 L227.8 60.1 L228.2 61.4 L228.5 62.8 L228.8 64.2 L229.1 65.7 L229.5 67.1 L229.8 68.3 L230.1 69.4 L230.4 70.3 L230.7 70.9 L231.1 71.3 L231.4 71.3 L231.7 71.1 L232 70.5 L232.4 69.7 L232.7 68.6 L233 67.4 L233.3 66 L233.6 64.5 L234 63 L234.3 61.5 L234.6 60.1 L234.9 58.9 L235.3 57.9 L235.6 57.2 L235.9 56.7 L236.2 56.6 L236.5 56.7 L236.9 57.2 L237.2 58 L237.5 59.1 L237.8 60.3 L238.2 61.7 L238.5 63.3 L238.8 64.8 L239.1 66.4 L239.4 67.8 L239.8 69.1 L240.1 70.1 L240.4 70.9 L240.7 71.4 L241.1 71.5 L241.4 71.4 L241.7 70.8 L242 70 L242.3 68.9 L242.7 67.6 L243 66.1 L243.3 64.5 L243.6 62.9 L244 61.3 L244.3 59.8 L244.6 58.6 L244.9 57.5 L245.2 56.8 L245.6 56.4 L245.9 56.4 L246.2 56.7 L246.5 57.3 L246.9 58.3 L247.2 59.6 L247.5 61 L247.8 62.6 L248.1 64.3 L248.5 66 L248.8 67.6 L249.1 69 L249.4 70.1 L249.8 71 L250.1 71.6 L250.4 71.8 L250.7 71.6 L251 71 L251.4 70.1 L251.7 68.9 L252 67.4 L252.3 65.8 L252.7 64 L253 62.3 L253.3 60.6 L253.6 59.1 L253.9 57.9 L254.3 56.9 L254.6 56.3 L254.9 56.1 L255.2 56.3 L255.6 56.9 L255.9 57.9 L256.2 59.2 L256.5 60.7 L256.8 62.4 L257.2 64.2 L257.5 66 L257.8 67.8 L258.1 69.3 L258.5 70.5 L258.8 71.4 L259.1 71.9 L259.4 72 L259.7 71.7 L260.1 70.9 L260.4 69.8 L260.7 68.3 L261 66.6 L261.4 64.7 L261.7 62.8 L262 61 L262.3 59.3 L262.6 57.9 L263 56.8 L263.3 56.1 L263.6 55.8 L263.9 56 L264.3 56.7 L264.6 57.8 L264.9 59.2 L265.2 61 L265.5 62.9 L265.9 64.8 L266.2 66.8 L266.5 68.6 L266.8 70.1 L267.2 71.3 L267.5 72 L267.8 72.3 L268.1 72.1 L268.4 71.4 L268.8 70.2 L269.1 68.7 L269.4 66.9 L269.7 64.9 L270.1 62.8 L270.4 60.8 L270.7 58.9 L271 57.4 L271.3 56.3 L271.7 55.7 L272 55.6 L272.3 56 L272.6 56.9 L273 58.3 L273.3 60.1 L273.6 62.1 L273.9 64.2 L274.2 66.4 L274.6 68.4 L274.9 70.1 L275.2 71.5 L275.5 72.3 L275.9 72.6 L276.2 72.4 L276.5 71.5 L276.8 70.2 L277.1 68.4 L277.5 66.3 L277.8 64 L278.1 61.8 L278.4 59.6 L278.8 57.8 L279.1 56.4 L279.4 55.5 L279.7 55.2 L280 55.5 L280.4 56.5 L280.7 58 L281 59.9 L281.3 62.2 L281.7 64.6 L282 66.9 L282.3 69.1 L282.6 70.9 L282.9 72.2 L283.3 72.9 L283.6 72.9 L283.9 72.3 L284.2 71 L284.6 69.1 L284.9 66.9 L285.2 64.4 L285.5 61.8 L285.8 59.4 L286.2 57.4 L286.5 55.9 L286.8 55 L287.1 54.8 L287.5 55.4 L287.8 56.7 L288.1 58.6 L288.4 61 L288.7 63.6 L289.1 66.3 L289.4 68.9 L289.7 71 L290 72.5 L290.4 73.3 L290.7 73.3 L291 72.5 L291.3 70.9 L291.6 68.7 L292 66.1 L292.3 63.2 L292.6 60.4 L292.9 57.9 L293.3 55.9 L293.6 54.7 L293.9 54.3 L294.2 54.9 L294.5 56.3 L294.9 58.5 L295.2 61.2 L295.5 64.2 L295.8 67.3 L296.2 70 L296.5 72.2 L296.8 73.6 L297.1 74 L297.4 73.3 L297.8 71.7 L298.1 69.3 L298.4 66.3 L298.7 63 L299.1 59.8 L299.4 57 L299.7 54.9 L300 53.9 L300.3 53.9 L300.7 55.1 L301 57.3 L301.3 60.3 L301.6 63.8 L302 67.3 L302.3 70.5 L302.6 73 L302.9 74.4 L303.2 74.5 L303.6 73.3 L303.9 71 L304.2 67.7 L304.5 63.9 L304.9 60 L305.2 56.7 L305.5 54.2 L305.8 53.1 L306.1 53.4 L306.5 55.2 L306.8 58.3 L307.1 62.2 L307.4 66.4 L307.8 70.4 L308.1 73.5 L308.4 75.2 L308.7 75.2 L309 73.5 L309.4 70.2 L309.7 65.9 L310 61.2 L310.3 56.9 L310.7 53.7 L311 52.2 L311.3 52.7 L311.6 55.2 L311.9 59.4 L312.3 64.5 L312.6 69.6 L312.9 73.8 L313.2 76.2 L313.6 76.2 L313.9 73.7 L314.2 69.1 L314.5 63.3 L314.8 57.5 L315.2 53 L315.5 50.9 L315.8 51.8 L316.1 55.6 L316.5 61.7 L316.8 68.6 L317.1 74.5 L317.4 77.8 L317.7 77.3 L318.1 72.9 L318.4 65.6 L318.7 57.5 L319 51.1 L319.4 48.8 L319.7 51.8 L320 59.5 L320.4 69.2 L320.8 72.7 L321.2 75.1 L321.7 76.5 L322.1 76.7 L322.5 75.9 L322.9 74.1 L323.3 71.7 L323.8 68.8 L324.2 65.7 L324.6 62.8 L325 60.2 L325.4 58.1 L325.8 56.6 L326.2 55.9 L326.7 55.9 L327.1 56.6 L327.5 57.8 L327.9 59.5 L328.3 61.4 L328.8 63.3 L329.2 65.2 L329.6 66.8 L330 68 L330.4 68.8 L330.8 69.2 L331.2 69.1 L331.7 68.6 L332.1 67.7 L332.5 66.6 L332.9 65.4 L333.3 64.2 L333.8 63 L334.2 62 L334.6 61.3 L335 60.8 L335.4 60.7 L335.8 60.8 L336.2 61.2 L336.7 61.8 L337.1 62.5 L337.5 63.3 L337.9 64.1 L338.3 64.8 L338.8 65.4 L339.2 65.8 L339.6 66.1 L340 66.1 L340.4 66 L340.8 65.7 L341.2 65.3 L341.7 64.9 L342.1 64.4 L342.5 63.9 L342.9 63.4 L343.3 63.1 L343.8 62.8 L344.2 62.7 L344.6 62.7 L345 62.8 L345.4 62.9 L345.8 63.2 L346.2 63.5 L346.7 63.8 L347.1 64.2 L347.5 64.4 L347.9 64.6 L348.3 64.8 L348.8 64.9 L349.2 64.8 L349.6 64.8 L350 64.6 L350.4 64.5 L350.8 64.3 L351.2 64.1 L351.7 63.9 L352.1 63.7 L352.5 63.6 L352.9 63.5 L353.3 63.4 L353.8 63.5 L354.2 63.5 L354.6 63.6 L355 63.7 L355.4 63.9 L355.8 64 L356.2 64.1 L356.7 64.2 L357.1 64.3 L357.5 64.3 L357.9 64.4 L358.3 64.3 L358.8 64.3 L359.2 64.2 L359.6 64.2 L360 64.1 L360.4 64 L360.8 63.9 L361.2 63.9 L361.7 63.8 L362.1 63.8 L362.5 63.8 L362.9 63.8 L363.3 63.8 L363.8 63.9 L364.2 63.9 L364.6 64 L365 64 L365.4 64.1 L365.8 64.1 L366.2 64.1 L366.7 64.1 L367.1 64.1 L367.5 64.1 L367.9 64.1 L368.3 64.1 L368.8 64 L369.2 64 L369.6 64 L370 64"/>
	</g>
	<g stroke-width="0.9" opacity="0.8">
		<path pathLength="1" d="M76 230 a34 22 0 1 0 68 0 a34 22 0 1 0 -68 0"/>
		<path pathLength="1" d="M141.8 230 a2.2 2.2 0 1 0 4.4 0 a2.2 2.2 0 1 0 -4.4 0"/>
		<path pathLength="1" d="M131.8 245.6 a2.2 2.2 0 1 0 4.4 0 a2.2 2.2 0 1 0 -4.4 0"/>
		<path pathLength="1" d="M107.8 252 a2.2 2.2 0 1 0 4.4 0 a2.2 2.2 0 1 0 -4.4 0"/>
		<path pathLength="1" d="M83.8 245.6 a2.2 2.2 0 1 0 4.4 0 a2.2 2.2 0 1 0 -4.4 0"/>
		<path pathLength="1" d="M73.8 230 a2.2 2.2 0 1 0 4.4 0 a2.2 2.2 0 1 0 -4.4 0"/>
		<path pathLength="1" d="M83.8 214.4 a2.2 2.2 0 1 0 4.4 0 a2.2 2.2 0 1 0 -4.4 0"/>
		<path pathLength="1" d="M107.8 208 a2.2 2.2 0 1 0 4.4 0 a2.2 2.2 0 1 0 -4.4 0"/>
		<path pathLength="1" d="M131.8 214.4 a2.2 2.2 0 1 0 4.4 0 a2.2 2.2 0 1 0 -4.4 0"/>
		<path pathLength="1" d="M370.5 232 L374 230 L370.5 228"/>
		<path pathLength="1" d="M364 230 L374 230"/>
		<path pathLength="1" d="M108 122.5 L110 126 L112 122.5"/>
		<path pathLength="1" d="M110 116 L110 126"/>
	</g>
	<g>
		<text x="30" y="34" font-size="7" text-anchor="start" fill="currentColor" stroke="none" font-family="ui-monospace, monospace" letter-spacing="1">INSPIRAL</text>
		<text x="324" y="34" font-size="7" text-anchor="start" fill="currentColor" stroke="none" font-family="ui-monospace, monospace" letter-spacing="1">MERGER</text>
		<text x="360" y="252" font-size="7" text-anchor="end" fill="currentColor" stroke="none" font-family="ui-monospace, monospace" letter-spacing="1">4 KM</text>
		<text x="124" y="116" font-size="7" text-anchor="start" fill="currentColor" stroke="none" font-family="ui-monospace, monospace" letter-spacing="1">4 KM</text>
		<text x="49" y="248" font-size="7" text-anchor="middle" fill="currentColor" stroke="none" font-family="ui-monospace, monospace" letter-spacing="1">LASER</text>
		<text x="200" y="292" font-size="7" text-anchor="middle" fill="currentColor" stroke="none" font-family="ui-monospace, monospace" letter-spacing="1">ONE ARM STRETCHES AS THE OTHER SQUEEZES · ×10²⁰</text>
	</g>
</svg>
