<svg xmlns="http://www.w3.org/2000/svg" viewBox="0 0 400 300" fill="none" stroke="currentColor" stroke-width="1.25" stroke-linecap="round" stroke-linejoin="round" aria-hidden="true">
	<g stroke-width="0.6" opacity="0.55">
		<path pathLength="1" d="M60 30 L200 30 M60 60 L200 60 M60 90 L200 90 M60 120 L200 120 M60 150 L200 150 M60 180 L200 180 M60 210 L200 210 M60 240 L200 240 M60 270 L200 270"/>
		<path pathLength="1" d="M130 22 L130 276"/>
		<text x="50" y="63" font-size="7" text-anchor="end" fill="currentColor" stroke="none" font-family="ui-monospace, monospace" letter-spacing="1">1</text>
		<text x="50" y="93" font-size="7" text-anchor="end" fill="currentColor" stroke="none" font-family="ui-monospace, monospace" letter-spacing="1">2</text>
		<text x="50" y="123" font-size="7" text-anchor="end" fill="currentColor" stroke="none" font-family="ui-monospace, monospace" letter-spacing="1">3</text>
		<text x="50" y="153" font-size="7" text-anchor="end" fill="currentColor" stroke="none" font-family="ui-monospace, monospace" letter-spacing="1">4</text>
		<text x="50" y="183" font-size="7" text-anchor="end" fill="currentColor" stroke="none" font-family="ui-monospace, monospace" letter-spacing="1">5</text>
		<text x="50" y="213" font-size="7" text-anchor="end" fill="currentColor" stroke="none" font-family="ui-monospace, monospace" letter-spacing="1">6</text>
		<text x="50" y="243" font-size="7" text-anchor="end" fill="currentColor" stroke="none" font-family="ui-monospace, monospace" letter-spacing="1">7</text>
		<text x="50" y="273" font-size="7" text-anchor="end" fill="currentColor" stroke="none" font-family="ui-monospace, monospace" letter-spacing="1">8</text>
	</g>
	<g>
		<path pathLength="1" d="M116 45 a14 14 0 1 0 28 0 a14 14 0 1 0 -28 0"/>
		<path pathLength="1" d="M124 60 L124 68 L96 75 L106 150 L102 160"/>
		<path pathLength="1" d="M136 60 L136 68 L164 75 L154 150 L158 160"/>
		<path pathLength="1" d="M102 160 L110 210 L112 264 L100 274 L120 274 L122 264"/>
		<path pathLength="1" d="M158 160 L150 210 L148 264 L160 274 L140 274 L138 264"/>
		<path pathLength="1" d="M122 264 L126 210 L130 166 L134 210 L138 264"/>
		<path pathLength="1" d="M96 75 L84 120 L80 156"/>
		<path pathLength="1" d="M164 75 L188 66 L196 36"/>
		<path pathLength="1" d="M191 26 a9 9 0 1 0 18 0 a9 9 0 1 0 -18 0"/>
	</g>
	<g stroke-width="0.9" opacity="0.8">
		<path pathLength="1" d="M128 66 C120 95.0 116 130 114 170 S112 230 116 260.0"/>
	</g>
	<g stroke-width="0.6" opacity="0.55">
		<path pathLength="1" d="M116 260 L252.5 229.3"/>
		<path pathLength="1" d="M109 260 a7 7 0 1 0 14 0 a7 7 0 1 0 -14 0"/>
	</g>
	<g>
		<path pathLength="1" d="M242 196 a58 58 0 1 0 116 0 a58 58 0 1 0 -116 0"/>
		<path pathLength="1" d="M250 166 C280 170 292 184 302 200"/>
		<path pathLength="1" d="M248 178 C276 182 284 194 292 208"/>
	</g>
	<g stroke-width="0.9" opacity="0.8">
		<path pathLength="1" d="M297 204 L330 230"/>
		<path pathLength="1" d="M324 234 L336 226"/>
		<path pathLength="1" d="M291 204 a6 6 0 1 0 12 0 a6 6 0 1 0 -12 0"/>
	</g>
	<g stroke-width="0.6" opacity="0.55">
		<path pathLength="1" d="M238 70 a62 26 0 1 0 124 0 a62 26 0 1 0 -124 0"/>
		<path pathLength="1" d="M246 70 a54 21 0 1 0 108 0 a54 21 0 1 0 -108 0"/>
		<path pathLength="1" d="M254 70 a46 16 0 1 0 92 0 a46 16 0 1 0 -92 0"/>
	</g>
	<g>
		<path pathLength="1" d="M362 70 l-5 -6 M362 70 l5 -6"/>
	</g>
	<g>
		<text x="300" y="74" font-size="10" text-anchor="middle" fill="currentColor" stroke="none" font-family="ui-monospace, monospace" letter-spacing="1">×3</text>
		<text x="300" y="268" font-size="8" text-anchor="middle" fill="currentColor" stroke="none" font-family="ui-monospace, monospace" letter-spacing="1">ICHOR · NAIL</text>
		<text x="300" y="30" font-size="8" text-anchor="middle" fill="currentColor" stroke="none" font-family="ui-monospace, monospace" letter-spacing="1">CIRCUIT OF CRETE</text>
	</g>
</svg>
